<svg width="213" height="47" viewBox="0 0 213 47" fill="none" xmlns="http://www.w3.org/2000/svg">
<path d="M24.8246 17.4065V17.8868H16.5874V17.7314C16.5874 16.2973 15.5913 14.948 13.0481 14.948C10.5049 14.948 9.42402 15.7816 9.42402 16.7424C9.42402 20.8398 25.3756 17.6184 25.5805 27.763C25.5805 34.5661 20.4093 37.3142 13.5285 37.3142C5.84939 37.3142 0 35.3644 0 27.5652H8.3149C8.3149 30.5111 10.0245 31.0268 12.7302 31.0268C14.3197 31.0268 16.5874 30.9067 16.5874 29.1971C16.5874 25.2551 0.430933 28.3988 0.430933 17.7385C0.430933 11.3734 6.23794 8.9856 12.7231 8.9856C19.2083 8.9856 24.6974 11.5712 24.8175 17.4206L24.8246 17.4065Z" fill="white"/>
<path d="M29.6708 13.3514V7.98242H37.5901V13.3514H29.6708ZM29.6708 36.8196V15.8099H37.5901V36.8196H29.6708Z" fill="white"/>
<path d="M77.6952 23.2134V36.8196H69.776V24.1671C69.776 22.4151 68.9 21.1859 67.2681 21.1859C65.3607 21.1859 64.1244 22.6977 64.1244 24.485V36.8196H56.2051V24.1671C56.2051 22.4151 55.3291 21.1859 53.6972 21.1859C51.7898 21.1859 50.5535 22.6977 50.5535 24.485V36.8196H42.6342V15.8099H49.1194L49.6351 18.9535C51.2246 16.7282 54.0504 15.3295 56.9539 15.3295C60.1753 15.3295 62.2876 16.6435 63.319 18.9535C64.9509 16.7636 67.699 15.3295 70.5177 15.3295C75.371 15.3295 77.6811 18.233 77.6811 23.2064L77.6952 23.2134Z" fill="white"/>
<path d="M132.735 22.7897V36.3959H124.815V23.7434C124.815 21.9915 123.897 20.7622 122.152 20.7622C120.16 20.7622 118.853 22.274 118.853 24.0613V36.3959H110.934V15.3862H117.419L117.934 18.5722C119.566 16.3469 122.428 14.9128 125.416 14.9128C130.389 14.9128 132.735 17.8163 132.735 22.7897Z" fill="white"/>
<path d="M106.773 25.7004C106.773 21.6877 104.844 18.1272 101.87 15.8949V12.1436C101.714 10.0525 99.9766 6.09644 94.4946 6.09644C89.0125 6.09644 87.2747 9.9819 87.1263 12.0377V15.8807C84.1098 18.1131 82.1741 21.6807 82.1741 25.7074C82.1741 26.8024 82.3295 27.855 82.5909 28.8653C82.6333 29.0348 82.6757 29.2044 82.7181 29.3739C82.7181 29.388 82.7251 29.4022 82.7322 29.4092C83.8766 33.4642 87.0415 36.6715 91.0824 37.8513V44.5767L100.817 36.6079C104.392 34.4674 106.78 30.5537 106.78 26.0889C106.78 26.0324 106.773 25.9759 106.773 25.9194C106.773 25.8487 106.78 25.7781 106.78 25.7074L106.773 25.7004ZM91.2802 12.2355C91.3579 11.6279 91.7182 10.0737 94.4875 10.0737C97.391 10.0737 97.716 11.741 97.7866 12.3344V13.8956C96.7411 13.606 95.6461 13.4506 94.5157 13.4506C93.3854 13.4506 92.3116 13.5989 91.2802 13.8744V12.2425V12.2355ZM95.8509 31.359L96.0629 34.3402H92.898L93.1806 31.3661C90.595 30.7727 88.7017 28.4838 88.7017 25.7074C88.7017 22.5143 91.2732 19.9358 94.5157 19.9358C97.7583 19.9358 100.287 22.5143 100.287 25.7074C100.287 28.4838 98.4012 30.7585 95.858 31.3661L95.8509 31.359Z" fill="#00F1C7"/>
<path d="M161.325 15.0051H157.651V22.2321H161.268C163.508 22.2321 164.822 20.798 164.822 18.5868C164.822 16.3756 163.508 15.0051 161.325 15.0051Z" fill="#00F1C7"/>
<path d="M174.076 28.3216C174.076 29.3389 174.825 30.2926 176.379 30.2926C178.378 30.2926 179.812 28.145 179.812 26.287V25.9268H179.155C177.213 25.9268 174.076 26.1952 174.076 28.3146V28.3216Z" fill="#00F1C7"/>
<path d="M206.149 0H145.91C142.406 0 139.566 2.83992 139.566 6.3439V40.6561C139.566 44.1601 142.406 47 145.91 47H206.149C209.653 47 212.493 44.1601 212.493 40.6561V6.3439C212.493 2.83992 209.653 0 206.149 0ZM161.982 25.5734H157.651V32.8922H153.801V11.6847H161.982C165.952 11.6847 168.735 14.461 168.735 18.5867C168.735 22.7123 165.959 25.5734 161.982 25.5734ZM183.549 32.8922H180.052V31.6348C180.052 31.0343 180.109 30.561 180.109 30.561H180.052C180.052 30.561 178.887 33.2525 175.425 33.2525C172.705 33.2525 170.261 31.55 170.261 28.5052C170.261 23.666 176.803 23.3411 179.282 23.3411H179.791V23.1291C179.791 21.1299 178.534 20.4375 176.866 20.4375C174.683 20.4375 172.684 21.8999 172.684 21.8999L171.25 19.1801C171.25 19.1801 173.61 17.3009 177.227 17.3009C181.232 17.3009 183.556 19.5121 183.556 23.3622V32.8922H183.549ZM194.09 35.1953C193.016 37.9716 190.896 39.1655 188.593 39.1655C186.771 39.1655 185.429 38.1765 185.429 38.1765L186.686 35.3365C186.686 35.3365 187.52 35.9653 188.389 35.9653C189.434 35.9653 190.451 35.3365 191.017 33.9943L191.582 32.652L185.16 17.6541H189.434L192.627 26.4353C192.924 27.2406 193.192 28.4981 193.192 28.4981H193.249C193.249 28.4981 193.489 27.3042 193.758 26.4989L196.746 17.6541H200.9L194.09 35.1882V35.1953Z" fill="#00F1C7"/>
</svg>
